<?xml version="1.0" standalone="no"?>
<!DOCTYPE svg PUBLIC "-//W3C//DTD SVG 20010904//EN"
 "http://www.w3.org/TR/2001/REC-SVG-20010904/DTD/svg10.dtd">
<svg version="1.0" xmlns="http://www.w3.org/2000/svg"
 width="512.000000pt" height="512.000000pt" viewBox="0 0 512.000000 512.000000"
 preserveAspectRatio="xMidYMid meet">
<metadata>
Created by potrace 1.11, written by Peter Selinger 2001-2013
</metadata>
<g transform="translate(0.000000,512.000000) scale(0.100000,-0.100000)"
fill="#000000" stroke="none">
<path d="M1 3938 c1 -651 4 -1169 6 -1153 55 469 184 832 418 1185 111 166
197 272 330 406 394 395 885 643 1440 728 80 12 -42 14 -1052 15 l-1143 1 1
-1182z"/>
<path d="M2925 5104 c260 -40 503 -117 750 -239 791 -389 1324 -1138 1429
-2009 12 -98 14 28 15 1077 l1 1187 -1142 -1 c-1011 -1 -1133 -3 -1053 -15z"/>
<path d="M2335 4950 c-568 -60 -1071 -302 -1475 -709 l-115 -116 630 -5 c704
-6 657 -1 737 -78 115 -110 74 -325 -74 -386 -29 -13 -78 -16 -220 -16 -196 0
-223 -6 -245 -50 -9 -19 -9 -29 2 -51 8 -14 22 -29 30 -33 9 -3 135 -6 279 -6
261 0 262 0 313 -25 148 -74 177 -282 56 -397 -64 -61 -11 -58 -1076 -58
l-974 0 -11 -87 c-6 -49 -14 -116 -18 -150 l-6 -63 2386 0 2386 0 0 35 c0 64
-30 251 -60 371 -36 145 -73 257 -135 403 l-48 111 -711 0 c-794 0 -752 -3
-823 71 -91 96 -86 270 11 344 69 52 98 58 314 64 186 6 205 8 218 25 20 28
17 73 -6 96 -18 18 -33 20 -134 20 -166 0 -235 32 -288 133 -31 61 -27 155 10
220 40 72 90 105 182 120 l74 12 -84 34 c-194 77 -371 126 -565 156 -117 19
-445 27 -560 15z"/>
<path d="M3470 4557 c-38 -19 -52 -54 -35 -88 19 -36 31 -39 147 -39 55 0 119
-5 142 -12 55 -16 138 -99 154 -154 35 -117 -14 -236 -118 -289 -47 -24 -57
-25 -237 -25 -201 0 -228 -6 -249 -49 -13 -26 -3 -69 19 -83 14 -9 1297 -11
1297 -2 0 11 -93 147 -154 223 -143 181 -291 324 -479 463 l-92 68 -185 0
c-129 0 -193 -4 -210 -13z"/>
<path d="M570 3885 c-24 -36 -40 -68 -37 -72 4 -3 30 -10 58 -14 68 -11 124
-51 160 -114 24 -41 29 -61 29 -115 0 -81 -23 -134 -79 -181 -58 -50 -98 -59
-263 -59 l-144 0 -18 -57 c-10 -32 -21 -64 -23 -70 -4 -10 186 -13 929 -13
l935 0 21 23 c28 29 28 57 1 91 l-20 26 -263 0 c-293 0 -324 5 -384 63 -53 50
-73 99 -73 173 0 101 57 188 148 225 16 7 116 15 233 18 l204 6 15 26 c20 35
8 75 -29 94 -25 13 -119 15 -693 15 l-665 0 -42 -65z"/>
<path d="M406 3603 c-10 -21 -25 -53 -32 -70 l-14 -33 105 0 c118 0 145 13
145 68 0 47 -31 66 -114 70 l-71 4 -19 -39z"/>
<path d="M164 2534 c3 -9 6 -40 6 -70 l0 -53 698 -3 697 -3 41 -22 c180 -96
176 -325 -6 -424 -16 -9 -75 -15 -163 -19 -131 -5 -140 -6 -158 -29 -25 -30
-24 -76 1 -101 20 -20 33 -20 1784 -20 l1764 0 19 73 20 72 -261 5 -261 5 -46
27 c-84 49 -126 145 -108 244 15 81 61 138 139 173 42 19 65 21 333 21 l287 0
0 70 0 70 -2396 0 c-2181 0 -2396 -1 -2390 -16z"/>
<path d="M5110 2318 c0 -54 -46 -315 -74 -423 -36 -137 -52 -185 -98 -295
-141 -336 -303 -582 -543 -829 -223 -229 -425 -376 -700 -511 -281 -137 -563
-219 -875 -253 -19 -2 490 -5 1133 -5 l1167 -2 0 1175 c0 646 -2 1175 -5 1175
-3 0 -5 -15 -5 -32z"/>
<path d="M1 1168 l-1 -1168 1168 1 c1009 1 1154 3 1071 14 -233 32 -429 82
-629 161 -724 287 -1297 918 -1515 1670 -32 111 -71 304 -83 409 -6 52 -10
-333 -11 -1087z"/>
<path d="M190 2221 c0 -10 3 -39 6 -64 l6 -45 277 -4 c313 -4 333 -8 402 -85
48 -53 62 -99 57 -183 -4 -84 -38 -138 -111 -184 -42 -26 -60 -30 -151 -35
-116 -7 -146 -21 -146 -72 0 -53 32 -69 135 -69 121 0 172 -18 228 -80 45 -50
67 -103 67 -162 0 -106 -86 -208 -191 -226 l-44 -7 130 -131 c384 -384 861
-618 1405 -690 158 -20 534 -15 680 10 782 136 1424 612 1767 1310 l54 111
-1748 5 c-1684 5 -1749 6 -1786 24 -21 10 -55 38 -76 62 -104 118 -68 304 74
376 32 17 65 22 174 26 113 4 137 8 152 23 26 26 24 55 -6 84 l-24 25 -666 0
c-642 0 -665 -1 -665 -19z m3462 -753 c22 -6 62 -31 88 -55 119 -107 103 -281
-33 -371 -40 -26 -44 -27 -235 -32 -189 -5 -194 -6 -213 -29 -22 -28 -25 -69
-5 -97 12 -16 31 -20 128 -25 123 -6 154 -16 207 -70 43 -43 62 -82 68 -144
10 -96 -40 -195 -120 -238 l-42 -22 -613 -3 c-408 -2 -626 1 -652 8 -102 27
-171 122 -171 233 0 103 46 173 141 216 40 18 66 21 234 21 181 0 191 1 213
22 30 28 31 78 2 104 -18 16 -42 20 -153 24 -123 5 -135 7 -173 32 -95 63
-132 162 -102 273 13 49 99 136 149 152 51 16 1228 17 1282 1z m631 -4 c57
-19 128 -93 145 -152 48 -158 -62 -302 -230 -302 -157 0 -265 126 -237 276 27
145 177 228 322 178z m-2457 -632 c90 -46 142 -139 131 -234 -14 -116 -100
-201 -217 -215 -145 -17 -261 91 -261 241 0 101 58 189 147 222 52 19 148 12
200 -14z"/>
<path d="M2405 1285 c-30 -29 -32 -58 -5 -85 17 -17 33 -20 109 -20 176 0 252
-33 304 -130 70 -134 4 -308 -132 -348 -23 -7 -113 -12 -222 -12 -190 -1 -203
-3 -226 -44 -14 -25 2 -72 27 -86 12 -6 241 -10 604 -10 l585 0 21 22 c23 25
26 66 6 94 -12 16 -31 20 -128 25 -100 4 -120 8 -160 32 -109 64 -150 216 -89
335 50 97 96 114 334 121 171 5 190 8 203 25 20 29 17 54 -11 81 l-24 25 -586
0 -586 0 -24 -25z"/>
<path d="M4150 1290 c-25 -25 -26 -72 -2 -93 27 -24 74 -21 100 6 28 30 28 52
-3 82 -29 30 -68 32 -95 5z"/>
<path d="M1670 672 c-48 -39 -16 -122 47 -122 31 0 73 42 73 74 0 29 -42 66
-75 66 -13 0 -33 -8 -45 -18z"/>
<path d="M4382 2217 c-27 -28 -28 -68 -4 -90 16 -15 50 -17 275 -17 l257 0 4
23 c3 12 7 41 10 65 l6 42 -263 0 c-263 0 -264 0 -285 -23z"/>
<path d="M250 1932 c0 -32 99 -322 110 -322 3 0 12 16 19 36 18 51 80 108 136
128 30 10 81 16 132 16 96 0 123 16 123 73 0 41 -8 53 -43 66 -32 12 -477 15
-477 3z"/>
<path d="M510 1325 c0 -3 19 -36 42 -75 l42 -70 76 0 c67 0 79 3 98 23 28 30
28 52 -3 82 -22 23 -32 25 -114 25 -49 0 -101 4 -115 10 -14 5 -26 7 -26 5z"/>
</g>
</svg>
